<?xml version="1.0" standalone="no"?>
<!DOCTYPE svg PUBLIC "-//W3C//DTD SVG 20010904//EN"
 "http://www.w3.org/TR/2001/REC-SVG-20010904/DTD/svg10.dtd">
<svg version="1.0" xmlns="http://www.w3.org/2000/svg"
 width="374.000000pt" height="374.000000pt" viewBox="0 0 374.000000 374.000000"
 preserveAspectRatio="xMidYMid meet">
<metadata>
Created by potrace 1.14, written by Peter Selinger 2001-2017
</metadata>
<g transform="translate(0.000000,374.000000) scale(0.100000,-0.100000)"
fill="#000000" stroke="none">
<path d="M1597 3499 c-9 -5 -24 -24 -33 -40 -14 -28 -14 -33 0 -54 23 -35 55
-50 62 -30 3 8 11 15 16 15 6 0 7 -8 4 -17 -9 -22 -9 -155 0 -243 l7 -70 -37
0 c-36 0 -36 0 -36 43 0 36 8 102 25 212 3 23 1 21 -10 -10 -7 -22 -14 -54
-14 -72 -1 -17 -5 -34 -10 -37 -5 -3 -7 -24 -4 -45 3 -22 2 -52 -1 -67 -6 -24
-10 -26 -43 -21 -19 4 -45 14 -56 24 -19 18 -20 17 -9 -3 13 -24 32 -34 67
-34 34 0 41 -21 49 -135 4 -55 11 -116 16 -135 l10 -35 -5 40 c-3 22 -8 89
-11 148 l-7 108 44 -3 43 -3 19 -83 c10 -46 21 -82 23 -79 2 2 -2 36 -11 76
-20 97 -20 98 20 111 19 6 40 20 45 31 14 24 5 24 -27 -1 -39 -30 -61 -26 -68
14 -14 70 13 88 73 49 13 -8 26 -13 28 -10 9 8 -50 48 -78 54 -34 7 -41 28
-32 99 4 38 12 57 23 61 56 20 69 86 26 128 -26 27 -75 33 -108 14z"/>
<path d="M1489 3160 l-24 -21 30 14 c17 8 37 17 45 20 10 4 8 6 -6 6 -12 1
-32 -8 -45 -19z"/>
<path d="M1730 2708 c-26 -21 -91 -24 -120 -6 -15 10 -26 9 -54 -5 -31 -14
-36 -22 -36 -50 0 -30 -6 -38 -57 -72 -32 -21 -96 -77 -143 -124 -131 -134
-205 -284 -240 -489 -45 -257 -12 -492 89 -649 53 -82 101 -128 171 -163 l58
-29 7 -73 c10 -111 0 -505 -14 -571 -16 -69 -3 -134 34 -183 l23 -30 -20 -60
c-13 -36 -21 -85 -22 -126 l0 -68 -706 -3 c-388 -1 139 -2 1170 -2 1031 0
1633 1 1338 2 l-538 3 0 34 c0 43 -33 151 -61 195 l-21 34 26 51 c99 197 -38
423 -236 391 -24 -4 -58 -16 -76 -27 l-34 -21 -44 22 c-24 12 -60 25 -80 28
-47 8 -52 23 -66 207 l-12 151 25 37 c15 23 41 45 71 58 146 66 337 233 384
333 77 170 84 570 12 811 -66 225 -171 332 -376 388 -63 17 -110 21 -253 22
-157 2 -179 0 -199 -16z m110 -5 c-1 -14 -45 -41 -86 -52 -57 -16 -176 -14
-200 3 -16 12 -16 15 -4 19 40 14 69 16 75 7 11 -18 98 -11 130 9 30 19 85 28
85 14z m325 -34 c110 -31 239 -265 276 -499 15 -99 6 -336 -15 -415 -25 -89
-75 -182 -123 -230 -24 -24 -94 -80 -157 -124 -138 -98 -178 -138 -217 -217
-51 -104 -63 -195 -64 -498 l0 -269 -25 -10 c-14 -5 -83 -10 -155 -11 -116 -1
-134 1 -171 21 l-41 22 -7 78 c-4 43 -11 187 -16 320 -5 133 -14 261 -20 285
-13 50 -49 108 -67 108 -17 0 -16 -5 3 -41 8 -17 14 -32 12 -34 -7 -7 -102 58
-134 92 -49 52 -111 180 -134 277 -44 190 -17 462 63 638 71 154 188 298 307
377 43 29 45 29 75 13 22 -13 55 -17 130 -17 86 0 106 3 145 24 73 38 81 48
73 94 l-6 40 114 -6 c63 -3 132 -11 154 -18z m-516 -53 c47 1 106 7 130 13 36
10 45 10 52 -1 11 -17 4 -23 -61 -47 -85 -32 -230 -22 -230 15 0 7 -3 21 -7
31 -6 16 -5 17 12 3 13 -11 41 -15 104 -14z m410 -2055 c16 -10 6 -31 -15 -31
-8 0 -14 9 -14 20 0 22 7 25 29 11z m75 -77 c23 -50 39 -234 30 -367 -6 -103
-8 -108 -28 -105 -19 3 -22 11 -28 112 -3 60 -10 112 -15 117 -5 5 -73 6 -156
3 l-146 -7 6 -114 6 -113 -85 0 -85 0 -6 113 c-3 61 -11 135 -19 164 l-15 52
43 7 c24 3 55 3 69 0 37 -9 242 32 287 57 31 18 38 28 38 53 0 24 6 34 33 47
46 23 51 21 71 -19z m-675 -101 c32 -74 37 -93 23 -93 -11 0 -46 39 -61 67
-13 26 -15 122 -2 108 5 -6 23 -42 40 -82z m604 -180 c3 -5 8 -50 12 -101 l7
-92 -132 0 -132 0 6 23 c3 12 6 54 6 94 l0 72 58 4 c115 7 171 7 175 0z m-468
-160 c-3 -20 -12 -33 -21 -33 -11 0 -13 9 -8 42 3 24 11 57 17 73 l12 30 3
-40 c2 -21 1 -54 -3 -72z m891 14 c6 -44 5 -47 -16 -47 -18 0 -21 4 -16 23 3
12 6 38 6 57 0 48 18 26 26 -33z"/>
<path d="M1356 2074 c-3 -8 -6 -33 -6 -54 0 -34 3 -38 31 -44 41 -8 183 -8
393 1 l167 6 -3 51 -3 51 -286 3 c-255 2 -287 1 -293 -14z"/>
<path d="M1612 1563 c-4 -10 -7 -90 -7 -179 0 -178 6 -199 54 -188 70 16 65
-3 58 192 -5 125 -10 178 -19 184 -24 15 -78 9 -86 -9z"/>
</g>
</svg>
